<?xml version="1.0" encoding="utf-8"?>
<!-- Generator: Adobe Illustrator 24.1.1, SVG Export Plug-In . SVG Version: 6.00 Build 0)  -->
<svg version="1.1" id="Layer_1" xmlns="http://www.w3.org/2000/svg" xmlns:xlink="http://www.w3.org/1999/xlink" x="0px" y="0px"
	 viewBox="0 0 24 24" style="enable-background:new 0 0 24 24;" xml:space="preserve">
<style type="text/css">
	.st0{fill:#4A4C4F;}
</style>
<path class="st0" d="M6.7,5.6c-0.4-0.3-0.9-0.3-1.3,0c-0.4,0.3-0.4,0.9,0,1.3l5.3,5.2l-5.3,5.2c-0.4,0.3-0.4,0.9,0,1.3
	c0.4,0.3,0.9,0.3,1.3,0l5.3-5.2l5.3,5.2c0.4,0.3,0.9,0.3,1.3,0c0.4-0.3,0.4-0.9,0-1.3L13.3,12l5.3-5.2c0.4-0.3,0.4-0.9,0-1.3
	c-0.4-0.3-0.9-0.3-1.3,0L12,10.7L6.7,5.6z"/>
</svg>
