<?xml version="1.0" encoding="utf-8"?>
<!-- Generator: Adobe Illustrator 24.1.1, SVG Export Plug-In . SVG Version: 6.00 Build 0)  -->
<svg version="1.1" id="Layer_1" xmlns="http://www.w3.org/2000/svg" xmlns:xlink="http://www.w3.org/1999/xlink" x="0px" y="0px"
	 viewBox="0 0 512 512" style="enable-background:new 0 0 512 512;" xml:space="preserve">
<style type="text/css">
	.st0{fill:#282C38;}
</style>
<path class="st0" d="M264,480C135.9,480,32,376.1,32,248c0-94,54-178.3,137.6-214.7c8.1-3.5,17.5,0.2,21.1,8.3
	c1.8,4.1,1.8,8.7,0,12.8c-9.6,22-14.7,50.3-14.7,81.6c0,110.3,89.7,200,200,200c31.3,0,59.6-5.1,81.6-14.7
	c8.1-3.5,17.5,0.2,21.1,8.3c1.8,4.1,1.8,8.7,0,12.8C442.3,426,358,480,264,480z"/>
</svg>
