<?xml version="1.0" encoding="iso-8859-1"?>
<!-- Generator: Adobe Illustrator 24.1.1, SVG Export Plug-In . SVG Version: 6.00 Build 0)  -->
<svg version="1.1" id="Layer_1" xmlns="http://www.w3.org/2000/svg" xmlns:xlink="http://www.w3.org/1999/xlink" x="0px" y="0px"
	 viewBox="0 0 36 36" style="enable-background:new 0 0 36 36;" xml:space="preserve">
<style type="text/css">
	.st0{fill:#FFFFFF;}
</style>
<path class="st0" d="M4.2,23.2l-1.9,8.2c-0.2,1.1,0.5,2.2,1.6,2.5c0.1,0,0.3,0,0.4,0c0.1,0,0.3,0,0.4,0L13,32l15.8-15.8L20,7.4
	L4.2,23.2z"/>
<path class="st0" d="M33.8,8.3l-5.9-5.9c-0.8-0.8-2.1-0.8-2.9,0l-3.3,3.3l8.8,8.8l3.3-3.3C34.6,10.4,34.6,9.1,33.8,8.3
	C33.8,8.3,33.8,8.3,33.8,8.3z"/>
</svg>
