<?xml version="1.0" encoding="utf-8"?>
<!-- Generator: Adobe Illustrator 24.1.1, SVG Export Plug-In . SVG Version: 6.00 Build 0)  -->
<svg version="1.1" id="Layer_1" xmlns="http://www.w3.org/2000/svg" xmlns:xlink="http://www.w3.org/1999/xlink" x="0px" y="0px"
	 viewBox="0 0 512 512" style="enable-background:new 0 0 512 512;" xml:space="preserve">
<style type="text/css">
	.st0{fill:#FFFFFF;}
</style>
<path class="st0" d="M256,118c-12.2,0-22-9.8-22-22V48c0-12.2,9.8-22,22-22s22,9.8,22,22v48C278,108.2,268.2,118,256,118z"/>
<path class="st0" d="M256,486c-12.2,0-22-9.8-22-22v-48c0-12.2,9.8-22,22-22s22,9.8,22,22v48C278,476.2,268.2,486,256,486z"/>
<path class="st0" d="M369.1,164.9c-12.2,0-22-9.9-22-22c0-5.8,2.3-11.4,6.4-15.5l33.9-33.9c8.7-8.5,22.6-8.3,31.1,0.4
	c8.3,8.5,8.3,22.2,0,30.7l-33.9,33.9C380.6,162.5,375,164.9,369.1,164.9z"/>
<path class="st0" d="M108.9,425.1c-12.2,0-22-9.9-22-22c0-5.8,2.3-11.4,6.4-15.6l33.9-33.9c8.5-8.7,22.4-8.9,31.1-0.4
	c8.7,8.5,8.9,22.4,0.4,31.1c-0.1,0.1-0.3,0.3-0.4,0.4l-33.9,33.9C120.4,422.8,114.8,425.1,108.9,425.1z"/>
<path class="st0" d="M464,278h-48c-12.2,0-22-9.8-22-22s9.8-22,22-22h48c12.2,0,22,9.8,22,22S476.2,278,464,278z"/>
<path class="st0" d="M96,278H48c-12.2,0-22-9.8-22-22s9.8-22,22-22h48c12.2,0,22,9.8,22,22S108.2,278,96,278z"/>
<path class="st0" d="M403.1,425.1c-5.8,0-11.4-2.3-15.6-6.5l-33.9-33.9c-8.5-8.7-8.3-22.6,0.4-31.1c8.5-8.3,22.2-8.3,30.7,0
	l33.9,33.9c8.6,8.6,8.6,22.5,0,31.1C414.5,422.8,408.9,425.1,403.1,425.1L403.1,425.1z"/>
<path class="st0" d="M142.9,164.9c-5.8,0-11.4-2.3-15.6-6.4l-33.9-33.9c-8.5-8.7-8.3-22.6,0.4-31.1c8.5-8.3,22.2-8.3,30.7,0
	l33.9,33.9c8.6,8.6,8.6,22.5,0,31.1C154.3,162.5,148.7,164.9,142.9,164.9z"/>
<path class="st0" d="M256,358c-56.3,0-102-45.7-102-102s45.7-102,102-102s102,45.7,102,102C357.9,312.3,312.3,357.9,256,358z"/>
</svg>
