<?xml version="1.0" encoding="utf-8"?>
<!-- Generator: Adobe Illustrator 24.1.1, SVG Export Plug-In . SVG Version: 6.00 Build 0)  -->
<svg version="1.1" id="Layer_1" xmlns="http://www.w3.org/2000/svg" xmlns:xlink="http://www.w3.org/1999/xlink" x="0px" y="0px"
	 viewBox="0 0 512 512" style="enable-background:new 0 0 512 512;" xml:space="preserve">
<style type="text/css">
	.st0{fill:#282C34;}
</style>
<g>
	<g>
		<path class="st0" d="M392.1,122.8l15.4-24.3c6.9-10.8,3.7-25.1-7.1-31.9c-10.8-6.9-25.1-3.7-31.9,7.1l-15.4,24.2
			c-22.7-11.3-47.6-18.8-74-21.6v-30h1.4c12.8,0,23.1-10.4,23.1-23.1S293.4,0,280.6,0h-49.2c-12.8,0-23.1,10.4-23.1,23.1
			s10.4,23.1,23.1,23.1h1.4v30C123.2,87.9,37.5,180.9,37.5,293.5C37.5,414,135.5,512,256,512s218.5-98,218.5-218.5
			C474.5,224.5,442.3,162.8,392.1,122.8z M335.4,237.7l-62,71c-8.4,9.6-23,10.6-32.6,2.2s-10.6-23-2.2-32.6l62-71
			c8.4-9.6,23-10.6,32.6-2.2C342.8,213.5,343.8,228.1,335.4,237.7z"/>
	</g>
</g>
</svg>
